# xmcd
#
# Track frame offsets:
#	150
#	11982
#	24285
#	37100
#	51747
#	64457
#	76675
#	90567
#	104432
#	118027
#
# Disc length: 1741 seconds
#
# Revision: 0
# Processed by: cddbd v1.5.1PL0 Copyright (c) Steve Scherf et al.
# Submitted via: audiograbber 1.83.01
#
DISCID=8506cb0a
DTITLE=Various Artist - Blues! Blues! Blues!
DYEAR=1900
DGENRE=Blues
TTITLE0=Little Walter - My Babe
TTITLE1=Howlin' Wolf - Spoonful
TTITLE2=Muddy Waters - Hoochie Coochie Man
TTITLE3=Sonny Boy Williamson - The Key
TTITLE4=Lowell Pulson - Rollin' Blues
TTITLE5=John Lee Hooker - In The Mood
TTITLE6=Bo Diddley - Before You Accuse Me
TTITLE7=Chuck Berry - Wee Wee Hours
TTITLE8=Elmore James - Dust My Broom
TTITLE9=Muddy Waters - Louisiana Blues
EXTD=
EXTT0=
EXTT1=
EXTT2=
EXTT3=
EXTT4=
EXTT5=
EXTT6=
EXTT7=
EXTT8=
EXTT9=
PLAYORDER=
